<?xml version="1.0" encoding="utf-8"?>
<!-- Generator: Adobe Illustrator 24.0.2, SVG Export Plug-In . SVG Version: 6.00 Build 0)  -->
<svg version="1.1" id="outline" xmlns="http://www.w3.org/2000/svg" xmlns:xlink="http://www.w3.org/1999/xlink" x="0px" y="0px"
	 viewBox="0 0 500 500" style="enable-background:new 0 0 500 500;" xml:space="preserve">
<style type="text/css">
	.st0{fill:#F24C00;}
	.st1{fill:#FFC738;}
	.st2{fill:#ebe6ef;}
	.st3{fill:#121331;}
	.st4{fill:#3A3347;}
	.st5{fill:#01c9de;}
	.st6{opacity:0.5;fill:#ebe6ef;}
	.st7{opacity:0.5;}
	.st8{opacity:0.5;fill:#01c9de;}
	.st9{fill:#B26836;}
	.st10{opacity:0.5;fill:#B26836;}
	.st11{opacity:0.5;fill:#3A3347;}
	.st12{opacity:0.5;fill:#FFC738;}
	.st13{fill:#F9C9C0;}
	.st14{opacity:0.5;fill:#F9C9C0;}
	.st15{opacity:0.5;fill:#F24C00;}
	.st16{fill:#08A88A;}
	.st17{fill:#646e78;}
	.st18{opacity:0.5;fill:#646e78;}
	.st19{fill:#2CA58D;}
	.st20{fill:#F1F1F1;}
	.st21{fill:#F28BA8;}
	.st22{opacity:0.5;fill:#F28BA8;}
	.st23{fill:#92140C;}
	.st24{opacity:0.5;fill:#92140C;}
	.st25{fill:#FFFFFF;}
	.st26{fill:none;}
	.st27{opacity:0.5;fill:#2CA58D;}
	.st28{opacity:0.4;fill:#B26836;}
	.st29{fill:none;stroke:#121331;stroke-width:7;stroke-linecap:round;stroke-linejoin:round;stroke-miterlimit:10;}
	.st30{fill:#08A789;}
</style>
<g>
	<g>
		<path class="st17" d="M142.14,350.84h35.68c19.71,0,35.68,15.98,35.68,35.68v11.94c0,3.27-2.45,6.03-5.71,6.41l-12.49,1.44
			c-3.41,0.39-6.75,1.27-9.92,2.59h0c-16.3,6.81-34.64,6.83-50.96,0.05l-0.09-0.04c-3.31-1.37-6.79-2.28-10.35-2.69l-11.83-1.36
			c-3.25-0.38-5.71-3.13-5.71-6.41v-11.93C106.46,366.82,122.44,350.84,142.14,350.84z"/>
		<path class="st17" d="M159.15,255.63h1.67c14.5,0,26.12,12.02,25.61,26.52l-0.83,23.98c-0.48,13.8-11.8,24.74-25.61,24.74h0
			c-13.81,0-25.13-10.94-25.61-24.74l-0.83-23.98C133.03,267.66,144.65,255.63,159.15,255.63z"/>
	</g>
	<path class="st2" d="M246.36,215.65l-32.99,32.54c-1.18,1.16-3.08,1.15-4.24-0.03l-32.08-32.51h-44.67
		c-5.65,0-10.23-4.58-10.23-10.23v-72.07c0-5.65,4.58-10.23,10.23-10.23h159.21c5.65,0,10.23,4.58,10.23,10.23v72.07
		c0,5.65-4.58,10.23-10.23,10.23H246.36z"/>
	<g>
		<path class="st17" d="M321.28,347.42h35.68c19.71,0,35.68,15.98,35.68,35.68v11.94c0,3.27-2.45,6.03-5.71,6.41l-12.49,1.44
			c-3.41,0.39-6.75,1.27-9.92,2.59l0,0c-16.3,6.81-34.64,6.83-50.96,0.05l-0.09-0.04c-3.31-1.37-6.79-2.28-10.35-2.69l-11.83-1.36
			c-3.25-0.38-5.71-3.13-5.71-6.41v-11.93C285.6,363.4,301.57,347.42,321.28,347.42z"/>
		<path class="st17" d="M338.29,252.22h1.67c14.5,0,26.12,12.02,25.61,26.52l-0.83,23.98c-0.48,13.8-11.8,24.74-25.61,24.74h0
			c-13.81,0-25.13-10.94-25.61-24.74l-0.83-23.98C312.17,264.24,323.78,252.22,338.29,252.22z"/>
	</g>
	<path class="st5" d="M325.42,185.6l0.3,30.95c0.02,2.24-2.33,3.71-4.34,2.72l-67.67-33.67h-46.21c-5.84,0-10.58-4.74-10.58-10.58
		v-74.56c0-5.84,4.74-10.58,10.58-10.58h164.71c5.84,0,10.58,4.74,10.58,10.58v74.56c0,5.84-4.74,10.58-10.58,10.58H325.42z"/>
	<g class="st7">
		<path class="st17" d="M176.1,412.01c-5.33,1.34-10.79,2.02-16.25,2.02c-8.64,0-17.28-1.69-25.41-5.07l-0.09-0.04
			c-3.31-1.37-6.79-2.28-10.35-2.69l-11.83-1.36c-3.26-0.38-5.71-3.13-5.71-6.41v-11.93c0-19.71,15.97-35.69,35.68-35.69h6.18
			c-13.9,4.88-23.86,18.12-23.86,33.69v11.93c0,3.28,2.45,6.03,5.71,6.41l11.83,1.36c3.56,0.41,7.04,1.32,10.35,2.69l0.09,0.04
			C160.02,410.11,168.05,411.79,176.1,412.01z"/>
		<path class="st17" d="M171.62,328.07c-3.5,1.79-7.46,2.8-11.64,2.8c-6.9,0-13.19-2.74-17.8-7.2c-4.62-4.46-7.57-10.64-7.81-17.54
			l-0.83-23.98c-0.51-14.49,11.1-26.51,25.61-26.51h1.67c1.78,0,3.52,0.18,5.2,0.53c-8.85,4.28-14.85,13.48-14.48,23.98l0.83,23.98
			c0.24,6.9,3.19,13.08,7.81,17.54C163.33,324.71,167.25,326.96,171.62,328.07z"/>
	</g>
	<g class="st7">
		<path class="st17" d="M355.24,408.59c-5.33,1.34-10.79,2.02-16.25,2.02c-8.64,0-17.28-1.69-25.42-5.07l-0.08-0.03
			c-3.31-1.38-6.79-2.28-10.35-2.69l-11.83-1.37c-3.26-0.37-5.71-3.13-5.71-6.41v-11.93c0-19.71,15.97-35.68,35.68-35.68h6.18
			c-13.9,4.88-23.86,18.11-23.86,33.68v11.93c0,3.28,2.45,6.04,5.71,6.41l11.83,1.37c3.56,0.41,7.04,1.31,10.35,2.69l0.08,0.03
			C339.16,406.69,347.19,408.37,355.24,408.59z"/>
		<path class="st17" d="M350.76,324.65c-3.5,1.8-7.46,2.8-11.64,2.8c-6.9,0-13.19-2.73-17.8-7.19c-4.62-4.46-7.57-10.64-7.81-17.54
			l-0.84-23.98c-0.5-14.5,11.11-26.52,25.61-26.52h1.67c1.78,0,3.52,0.18,5.2,0.53c-8.85,4.28-14.84,13.48-14.48,23.99l0.84,23.98
			c0.24,6.9,3.19,13.08,7.81,17.54C342.47,321.3,346.39,323.54,350.76,324.65z"/>
	</g>
	<path class="st6" d="M222.32,239.36l-8.95,8.83c-1.18,1.17-3.08,1.15-4.24-0.03l-32.08-32.51h-44.67
		c-5.65,0-10.23-4.58-10.23-10.23v-72.06c0-5.65,4.58-10.23,10.23-10.23h2.77v73.29c0,5.65,4.58,10.23,10.23,10.23h44.67
		L222.32,239.36z"/>
	<path class="st8" d="M325.72,216.55c0.02,2.24-2.33,3.72-4.33,2.72l-67.68-33.67H207.5c-5.84,0-10.58-4.73-10.58-10.58v-74.55
		c0-5.85,4.74-10.59,10.58-10.59h2.42v76.14c0,5.85,4.74,10.58,10.58,10.58h46.21l58.91,29.31L325.72,216.55z"/>
</g>
</svg>
